<svg width="12" height="12" viewBox="0 0 12 12" fill="none" xmlns="http://www.w3.org/2000/svg">
<rect opacity="0.7" x="0.260417" y="-0.260417" width="11.4792" height="11.4792" rx="2.73958" transform="matrix(1 0 0 -1 0 11.4792)" fill="#DE4242" fill-opacity="0.1" stroke="#DE4242" stroke-width="0.520833"/>
<g clip-path="url(#clip0_1251_3647)">
<path d="M6.00049 2.5C5.30825 2.5 4.63157 2.70527 4.05599 3.08986C3.48042 3.47444 3.03182 4.02107 2.76691 4.66061C2.502 5.30015 2.43269 6.00388 2.56774 6.68282C2.70279 7.36175 3.03613 7.98539 3.52562 8.47487C4.0151 8.96436 4.63874 9.2977 5.31767 9.43275C5.99661 9.5678 6.70034 9.49848 7.33988 9.23358C7.97942 8.96867 8.52605 8.52007 8.91063 7.9445C9.29522 7.36892 9.50049 6.69223 9.50049 6C9.49949 5.07205 9.13041 4.18239 8.47425 3.52623C7.81809 2.87007 6.92844 2.501 6.00049 2.5ZM6.00049 8.91667C5.42363 8.91667 4.85972 8.74561 4.38008 8.42512C3.90043 8.10463 3.5266 7.64911 3.30584 7.11616C3.08509 6.58321 3.02733 5.99676 3.13987 5.43099C3.25241 4.86521 3.53019 4.34551 3.93809 3.93761C4.346 3.5297 4.8657 3.25192 5.43148 3.13938C5.99725 3.02684 6.5837 3.0846 7.11665 3.30535C7.6496 3.52611 8.10512 3.89994 8.42561 4.37959C8.7461 4.85923 8.91716 5.42314 8.91716 6C8.91631 6.77329 8.60874 7.51466 8.06195 8.06146C7.51515 8.60825 6.77378 8.91582 6.00049 8.91667Z" fill="#DE4242"/>
<path d="M6.20904 3.9769C6.04085 3.94626 5.86797 3.95295 5.70265 3.99652C5.53733 4.04008 5.3836 4.11944 5.25235 4.22899C5.12109 4.33854 5.01552 4.4756 4.9431 4.63047C4.87068 4.78534 4.83318 4.95423 4.83325 5.1252C4.83325 5.20255 4.86398 5.27674 4.91868 5.33143C4.97338 5.38613 5.04756 5.41686 5.12492 5.41686C5.20227 5.41686 5.27646 5.38613 5.33116 5.33143C5.38586 5.27674 5.41659 5.20255 5.41659 5.1252C5.41651 5.03938 5.43537 4.95461 5.47182 4.87692C5.50828 4.79923 5.56142 4.73054 5.62747 4.67575C5.69351 4.62095 5.77083 4.58141 5.85392 4.55993C5.937 4.53845 6.0238 4.53557 6.10813 4.55149C6.22335 4.57385 6.32928 4.63006 6.41241 4.71292C6.49553 4.79578 6.55207 4.90155 6.57479 5.0167C6.59775 5.13756 6.5819 5.26259 6.52951 5.37391C6.47713 5.48523 6.39089 5.57713 6.28313 5.63649C6.10468 5.73987 5.95721 5.88922 5.85611 6.06897C5.755 6.24872 5.70394 6.4523 5.70825 6.65849V6.8752C5.70825 6.95255 5.73898 7.02674 5.79368 7.08143C5.84838 7.13613 5.92256 7.16686 5.99992 7.16686C6.07727 7.16686 6.15146 7.13613 6.20616 7.08143C6.26086 7.02674 6.29159 6.95255 6.29159 6.8752V6.65849C6.28793 6.55699 6.31107 6.45632 6.35869 6.36661C6.40631 6.27691 6.47672 6.20133 6.56284 6.14749C6.77415 6.03142 6.94432 5.85275 7.04994 5.63602C7.15556 5.4193 7.19145 5.17517 7.15267 4.93722C7.11388 4.69927 7.00233 4.47918 6.83336 4.30721C6.66438 4.13525 6.44628 4.01986 6.20904 3.9769Z" fill="#DE4242"/>
<path d="M6.29256 7.75016C6.29256 7.58908 6.16198 7.4585 6.0009 7.4585C5.83981 7.4585 5.70923 7.58908 5.70923 7.75016C5.70923 7.91125 5.83981 8.04183 6.0009 8.04183C6.16198 8.04183 6.29256 7.91125 6.29256 7.75016Z" fill="#DE4242"/>
</g>
<defs>
<clipPath id="clip0_1251_3647">
<rect width="7" height="7" fill="white" transform="translate(2.5 2.5)"/>
</clipPath>
</defs>
</svg>
