<svg xmlns="http://www.w3.org/2000/svg" width="24" height="24" viewBox="0 0 24 24" fill="none">
  <g clip-path="url(#clip0_2604_4410)">
    <path d="M23.2715 9.41885C22.3688 7.94057 21.23 6.6201 19.9005 5.50985L22.7005 2.70985C22.8827 2.52125 22.9835 2.26864 22.9812 2.00645C22.9789 1.74425 22.8738 1.49344 22.6884 1.30803C22.503 1.12262 22.2521 1.01745 21.9899 1.01517C21.7277 1.0129 21.4751 1.11369 21.2865 1.29585L18.2415 4.34485C16.3539 3.22367 14.196 2.63931 12.0005 2.65485C5.80954 2.65485 2.28154 6.89285 0.72954 9.41885C0.250068 10.1944 -0.00390625 11.0881 -0.00390625 11.9998C-0.00390625 12.9116 0.250068 13.8053 0.72954 14.5808C1.6323 16.0591 2.77103 17.3796 4.10054 18.4898L1.30054 21.2899C1.20503 21.3821 1.12885 21.4924 1.07644 21.6144C1.02403 21.7364 0.996443 21.8677 0.995289 22.0004C0.994135 22.1332 1.01944 22.2649 1.06972 22.3878C1.12 22.5107 1.19425 22.6224 1.28814 22.7162C1.38204 22.8101 1.49369 22.8844 1.61659 22.9347C1.73948 22.985 1.87116 23.0103 2.00394 23.0091C2.13672 23.0079 2.26794 22.9804 2.38994 22.9279C2.51195 22.8755 2.62229 22.7994 2.71454 22.7038L5.76654 19.6518C7.65181 20.7728 9.80721 21.3582 12.0005 21.3448C18.1915 21.3448 21.7195 17.1068 23.2715 14.5808C23.751 13.8053 24.005 12.9116 24.005 11.9998C24.005 11.0881 23.751 10.1944 23.2715 9.41885ZM2.43354 13.5338C2.14867 13.0729 1.99779 12.5417 1.99779 11.9998C1.99779 11.458 2.14867 10.9268 2.43354 10.4658C3.76754 8.29985 6.78254 4.65485 12.0005 4.65485C13.6608 4.64555 15.2978 5.04569 16.7665 5.81985L14.7535 7.83285C13.7935 7.19545 12.6424 6.90984 11.4958 7.02449C10.3491 7.13914 9.27741 7.64699 8.46254 8.46185C7.64768 9.27671 7.13983 10.3484 7.02519 11.4951C6.91054 12.6418 7.19614 13.7928 7.83354 14.7528L5.52354 17.0628C4.29864 16.0726 3.25338 14.8788 2.43354 13.5338ZM15.0005 11.9998C15.0005 12.7955 14.6845 13.5586 14.1219 14.1212C13.5593 14.6838 12.7962 14.9998 12.0005 14.9998C11.5551 14.9981 11.1157 14.8956 10.7155 14.6998L14.7005 10.7148C14.8963 11.115 14.9988 11.5544 15.0005 11.9998ZM9.00054 11.9998C9.00054 11.2042 9.31661 10.4411 9.87922 9.87853C10.4418 9.31592 11.2049 8.99985 12.0005 8.99985C12.446 9.00157 12.8853 9.10414 13.2855 9.29985L9.30054 13.2848C9.10483 12.8847 9.00226 12.4453 9.00054 11.9998ZM21.5675 13.5338C20.2335 15.6998 17.2185 19.3448 12.0005 19.3448C10.3403 19.3542 8.7033 18.954 7.23454 18.1798L9.24754 16.1668C10.2076 16.8042 11.3586 17.0899 12.5053 16.9752C13.652 16.8606 14.7237 16.3527 15.5385 15.5378C16.3534 14.723 16.8612 13.6513 16.9759 12.5046C17.0905 11.3579 16.8049 10.2069 16.1675 9.24685L18.4775 6.93685C19.7024 7.92713 20.7477 9.1209 21.5675 10.4658C21.8524 10.9268 22.0033 11.458 22.0033 11.9998C22.0033 12.5417 21.8524 13.0729 21.5675 13.5338Z" fill="#374957"/>
  </g>
  <defs>
    <clipPath id="clip0_2604_4410">
      <rect width="24" height="24" fill="white"/>
    </clipPath>
  </defs>
</svg>