<svg width="24" height="24" viewBox="0 0 24 24" fill="none" xmlns="http://www.w3.org/2000/svg">
<g clip-path="url(#clip0_2604_4713)">
<path d="M22.9994 23.9991C22.7342 23.9991 22.4798 23.8938 22.2923 23.7062C22.1048 23.5187 21.9994 23.2643 21.9994 22.9991C21.9978 21.4083 21.3652 19.8831 20.2403 18.7582C19.1154 17.6334 17.5902 17.0007 15.9994 16.9991H10.1694V18.5851C10.1693 18.9806 10.052 19.3672 9.83221 19.696C9.61244 20.0249 9.30012 20.2811 8.93472 20.4325C8.56932 20.5838 8.16725 20.6234 7.77934 20.5463C7.39144 20.4692 7.03511 20.2787 6.75541 19.9991L0.876406 14.1201C0.313993 13.5576 -0.00195313 12.7946 -0.00195312 11.9991C-0.00195313 11.2036 0.313993 10.4407 0.876406 9.87814L6.75541 3.99915C7.03511 3.71953 7.39144 3.52912 7.77934 3.45198C8.16725 3.37485 8.56932 3.41445 8.93472 3.56579C9.30012 3.71713 9.61244 3.97341 9.83221 4.30223C10.052 4.63105 10.1693 5.01765 10.1694 5.41315V6.99914H14.9994C17.3855 7.00179 19.6732 7.95085 21.3604 9.6381C23.0477 11.3254 23.9968 13.613 23.9994 15.9991V22.9991C23.9994 23.2643 23.8941 23.5187 23.7065 23.7062C23.519 23.8938 23.2646 23.9991 22.9994 23.9991ZM8.16941 5.41315L2.29041 11.2921C2.10294 11.4797 1.99762 11.734 1.99762 11.9991C1.99762 12.2643 2.10294 12.5186 2.29041 12.7061L8.16941 18.5851V15.9991C8.16941 15.7339 8.27476 15.4796 8.4623 15.292C8.64984 15.1045 8.90419 14.9991 9.16941 14.9991H15.9994C17.135 14.9988 18.2576 15.2407 19.2923 15.7087C20.3269 16.1767 21.2498 16.8601 21.9994 17.7131V15.9991C21.9973 14.1433 21.2591 12.364 19.9468 11.0517C18.6345 9.73943 16.8553 9.00126 14.9994 8.99914H9.16941C8.90419 8.99914 8.64984 8.89378 8.4623 8.70625C8.27476 8.51871 8.16941 8.26436 8.16941 7.99914V5.41315Z" fill="#374957"/>
</g>
<defs>
<clipPath id="clip0_2604_4713">
<rect width="24" height="24" fill="white"/>
</clipPath>
</defs>
</svg>
